name processed_emg_signals
nRows=98
nColumns=7
 
endheader
time	RGLTMED	RRF	RADDLONG	RST	RTA	RGM
1.355	0.2692869793151188	0.3660872020234977	0.560752860263597	0.1287577975146543	0.5722438682884188	0.6942927996858445
1.356	0.2627498483613481	0.3646589065984009	0.559003301289738	0.1263099631156106	0.5693612603883009	0.6878720266678654
1.357	0.2564066110076065	0.3632791378013442	0.5572751094955123	0.123900002587499	0.5664482907431456	0.6815077793278894
1.358	0.2502584129907685	0.3619479663284908	0.5555693288175007	0.1215295000815353	0.5635064698255484	0.6752053026017591
1.359	0.2443062052334468	0.3606653880552429	0.5538869631132103	0.1191999644477275	0.5605373470457075	0.6689697552409876
1.36	0.2385507478475179	0.3594313250644645	0.5522289738153107	0.1169128283077266	0.5575425084873237	0.6628062020663905
1.361	0.2329926142773853	0.3582456267947833	0.5505962776594666	0.1146694472702006	0.5545235746554252	0.6567196064205256
1.362	0.2276321955705542	0.3571080713043789	0.5489897444937364	0.1124710992876773	0.5514821982452781	0.6507148228360683
1.363	0.222469704763727	0.3560183666451574	0.5474101951765604	0.1103189841537511	0.5484200619396987	0.6447965899363407
1.364	0.2175051813736973	0.3549761523414932	0.5458583995701866	0.1082142231389755	0.5453388762403646	0.6389695235831929
1.365	0.2127384959828794	0.35398100096717	0.5443350746356842	0.1061578587637133	0.5422403773372626	0.6332381102867548
1.366	0.2081693549100768	0.3530324198133123	0.5428408826348692	0.1041508547056004	0.5391263250190746	0.6276067008909348
1.367	0.2037973049573441	0.3521298526394142	0.541376429444224	0.1021940958390524	0.5359985006263194	0.6220795045479435
1.368	0.1996217382239239	0.3512726814990746	0.5399422629849028	0.1002883884038388	0.532858705047953	0.6166605829941643
1.369	0.1956418969779383	0.350460228631832	0.5385388717724641	0.0984344602995399	0.5297087567609552	0.6113538451386918
1.37	0.1918568785761714	0.3496917584125404	0.5371666835893816	0.0966329615024021	0.5265504899112912	0.6061630419747367
1.371	0.1882656404217145	0.348966479350158	0.5358260642822157	0.0948844646010613	0.5233857524334996	0.6010917618230048
1.372	0.1848670049489751	0.3482835461285127	0.5345173166853321	0.0931894654473926	0.5202164042051649	0.596143425915288
1.373	0.181659664624963	0.3476420616824789	0.533240679672594	0.0915483839188362	0.5170443152317331	0.5913212843259519
1.374	0.1786421869557475	0.3470410793040158	0.5319963273390368	0.0899615647884351	0.5138713638566955	0.5866284122586813
1.375	0.1758130194866634	0.3464796047735363	0.530784368314647	0.0884292786991353	0.5106994349922287	0.5820677066955017
1.3760000000000001	0.1731704947850085	0.3459565985127948	0.5296048452123773	0.0869517232387872	0.5075304183658362	0.577641883414359
1.377	0.1707128353938734	0.3454709777564837	0.5284577342121873	0.0855290241123599	0.5043662067791356	0.573353474380668
1.3780000000000001	0.1684381587459048	0.345021618740721	0.5273429447821897	0.0841612364078053	0.5012086943755119	0.5692048255172375
1.379	0.1663444820259388	0.3446073589073882	0.5262603195378027	0.0828483459518023	0.498059774913387	0.5651980948557849
1.3800000000000001	0.1644297269718313	0.3442269991239188	0.5252096342397	0.0815902707517156	0.4949213400416781	0.561335251071946
1.381	0.1626917246033547	0.3438793059186261	0.5241905979323012	0.0803868625199013	0.4917952775736897	0.5576180724040991
1.3820000000000001	0.1611282198696456	0.3435630137314844	0.5232028532251066	0.0792379082767003	0.4886834697556973	0.5540481459547467
1.383	0.1597368762060249	0.3432768271800449	0.5222459767196459	0.0781431320283514	0.4855877915270049	0.5506268673715368
1.3840000000000001	0.1585152799915272	0.343019423339744	0.5213194795849923	0.0771021965160678	0.4825101087694366	0.5473554409034596
1.385	0.1574609448992502	0.3427894540374771	0.5204228082847387	0.0761147050323627	0.4794522765457336	0.5442348798265235
1.3860000000000001	0.1565713161331258	0.3425855481568807	0.5195553454577653	0.0751802033004914	0.476416137328123	0.541266007231965
1.387	0.1558437745463184	0.3424063139534566	0.5187164109546519	0.0742981814127708	0.4734035192197154	0.5384494571689836
1.3880000000000001	0.1552756406380877	0.3422503413771674	0.5179052630307099	0.0734680758233458	0.4704162341724767	0.5357856761327808
1.389	0.1548641784276729	0.3421162044000141	0.5171210996960454	0.0726892713908682	0.4674560762058261	0.5332749248876725
1.3900000000000001	0.1546065992048522	0.3420024633458424	0.5163630602223087	0.071961103466541	0.4645248196297977	0.5309172806142449
1.391	0.1545000651580772	0.3419076672192255	0.5156302268048424	0.0712828600228581	0.4616242172761651	0.5287126393686363
1.3920000000000001	0.1545416928817141	0.3418303560301748	0.5149216263789376	0.0706537838183028	0.4587559987404572	0.5266607188411458
1.393	0.1547285567641615	0.3417690631107877	0.5142362325883697	0.0700730745932008	0.4559218686375188	0.5247610614003618
1.3940000000000001	0.1550576922588755	0.341722317419603	0.5135729679046629	0.069539891291848	0.4531235048731871	0.523013037407784
1.395	0.1555260990403984	0.3416886458288028	0.5129307058952237	0.0690533543059227	0.4503625569347335	0.5214158487869154
1.3960000000000001	0.1561307440477048	0.3416665753889859	0.5123082736380049	0.0686125477342138	0.4476406442029128	0.5199685328295919
1.397	0.1568685644174651	0.3416546355659272	0.5117044542792192	0.0682165216536079	0.4449593542887402	0.5186699662215752
1.3980000000000001	0.1577364703099376	0.3416513604434532	0.5111179897301408	0.0678642943963919	0.4423202413984118	0.5175188692686474
1.399	0.1587313476302755	0.3416552908862151	0.5105475834978247	0.0675548548290718	0.4397248247299581	0.5165138103041533
1.4000000000000001	0.1598500606476623	0.3416649766560354	0.5099919036446047	0.0672871646281484	0.4371745869052881	0.5156532102588166
1.401	0.1610894545147352	0.3416789784757343	0.5094495858699517	0.0670601605484462	0.434670972441379	0.5149353473738458
1.4020000000000001	0.1624463576892539	0.3416958700348662	0.5089192367075432	0.0668727566800231	0.4322153862645285	0.5143583620385199
1.403	0.1639175842601168	0.3417142399333562	0.5083994368297289	0.0667238466899138	0.4298091922717367	0.513920261733595
1.4040000000000001	0.1654999361797918	0.3417326935607253	0.5078887444501056	0.0666123060452687	0.427453711943453	0.5136189260621431
1.405	0.1671902054052769	0.3417498549104653	0.5073856988146016	0.0665369942148245	0.4251502230120766	0.5134521118499463
1.4060000000000001	0.1689851759499252	0.3417643683308612	0.5068888237705224	0.0664967568456487	0.4228999581904529	0.5134174582983005
1.407	0.1708816258482302	0.3417749002147944	0.5063966314023325	0.0664904279123697	0.4207041039642104	0.513512492172803
1.408	0.1728763290356872	0.3417801406320132	0.5059076257223296	0.0665168318359823	0.4185637994511218	0.5137346330122834
1.409	0.1749660571453866	0.3417788049081998	0.5054203064034569	0.0665747855694292	0.4164801353298657	0.5140811983424662
1.41	0.1771475812227558	0.3417696351556408	0.5049331725404134	0.0666631006471248	0.4144541528397666	0.5145494088794451
1.411	0.1794176733595733	0.3417514017607276	0.5044447264247731	0.066780585195651	0.4124868428526148	0.515136393709093
1.412	0.1817731082482148	0.3417229048333504	0.5039534773192197	0.0669260459028864	0.410579145016983	0.515839195430713
1.413	0.1842106646571611	0.3416829756229445	0.5034579452163961	0.0670982899430181	0.4087319469750696	0.5166547752561641
1.414	0.186727126828919	0.3416304779053679	0.5029566645687812	0.0672961268548538	0.4069460836514367	0.5175800180585626
1.415	0.1893192858017334	0.3415643093440182	0.5024481879768673	0.0675183703710258	0.4052223366126417	0.5186117373666236
1.416	0.1919839406568104	0.3414834028278272	0.5019310898250263	0.0677638401957133	0.4035614334967696	0.5197466803016723
1.417	0.1947178996928788	0.3413867277881022	0.5014039698550319	0.0680313637285136	0.4019640475122023	0.5209815324547238
1.418	0.1975179815301114	0.3412732914955338	0.5008654566692265	0.0683197777323022	0.4004307970057396	0.5223129227011734
1.419	0.2003810161452107	0.3411421403379379	0.5003142111555876	0.0686279299428984	0.3989622451007704	0.5237374279510856
1.42	0.2033038458394121	0.3409923610784001	0.4997489298271275	0.0689546806184926	0.3975588994067003	0.5252515778334887
1.421	0.2062833261411385	0.3408230820925487	0.4991683480677831	0.0692989040266429	0.3962212118010143	0.5268518593136045
1.422	0.2093163266447787	0.3406334745826504	0.498571243275732	0.0696594898666644	0.394949578285139	0.5285347212420074
1.423	0.2123997317872071	0.3404227537652378	0.4979564378948383	0.0700353446250683	0.3937443389149035	0.5302965788348919
1.424	0.2155304415637735	0.340190180028689	0.4973228023251077	0.0704253928617922	0.3926057778055434	0.5321338180848783
1.425	0.2187053721859641	0.3399350600565947	0.4966692577044495	0.0708285784250778	0.3915341232104972	0.5340428001025517
1.426	0.2219214566835555	0.3396567479127242	0.4959947785563526	0.0712438655928782	0.3905295476725772	0.5360198653898656
1.427	0.2251756454549156	0.3393546460832461	0.4952983952999443	0.071670240139085	0.3895921682458383	0.5380613380479214
1.428	0.2284649067699632	0.3390282064719461	0.4945791966205307	0.072106710322973	0.3887220467862963	0.5401635299228255
1.429	0.2317862272311468	0.3386769313439871	0.4938363316987507	0.0725523078008965	0.3879191903093952	0.542322744694316
1.43	0.2351366121985495	0.3383003742135526	0.4930690122964153	0.0730060884596581	0.3871835514118332	0.5445352819124203
1.431	0.2385130861859452	0.3378981406702578	0.4922765146965388	0.0734671331715852	0.3865150287550634	0.54679744098734
1.432	0.2419126932352077	0.3374698891391678	0.4914581814946243	0.0739345484717143	0.3859134676074241	0.5491055251372434
1.433	0.2453324972765588	0.3370153315690363	0.4906134232380847	0.0744074671579406	0.385378660441638	0.5514558452979273
1.434	0.248769582482237	0.3365342340431886	0.4897417199105436	0.0748850488152673	0.3849103475842679	0.553844723997472
1.435	0.2522210536207739	0.3360264173075314	0.4888426222584799	0.0753664802655879	0.3845082179134646	0.556268499198306
1.436	0.2556840364191198	0.3354917572106117	0.4879157529575411	0.0758509759447775	0.384171909601135	0.5587235281082398
1.437	0.2591556779399011	0.3349301850516042	0.4869608076167108	0.07633777820911	0.383901010895417	0.5612061909612228
1.438	0.2626331469812768	0.3343416878333167	0.4859775556179879	0.0768261575734067	0.3836950609392962	0.5637128947675436
1.439	0.2661136345070919	0.3337263084187093	0.4849658407892361	0.0773154128833897	0.3835535506216458	0.5662400770320863
1.44	0.2695943541150226	0.3330841455905902	0.4839255819081101	0.07780487142525	0.3834759234578163	0.5687842094381302
1.441	0.2730725425504936	0.3324153540152573	0.4828567730361595	0.0782938889754085	0.3834615764975246	0.5713418014931653
1.442	0.276545460274043	0.3317201441112967	0.4817594836826099	0.0787818497937427	0.3835098612584856	0.5739094041326189
1.443	0.2800103920895274	0.3309987818253063	0.4806338587986956	0.0792681665634887	0.3836200846842126	0.5764836132769283
1.444	0.2834646478403931	0.3302515883161451	0.4794801186027224	0.0797522802808587	0.3837915101242215	0.5790610733367964
1.445	0.2869055631808656	0.3294789395489806	0.4782985582364586	0.0802336600973164	0.3840233583342742	0.5816384806606336
1.446	0.2903305004286782	0.3286812657997129	0.4770895472534058	0.0807118031170453	0.3843148084937314	0.5842125869168696
1.447	0.2937368495055198	0.3278590510699173	0.4758535289406841	0.0811862341521645	0.3846649992366358	0.5867802024027539
1.448	0.2971220289708699	0.327012832412504	0.4745910194774548	0.0816565054378987	0.3850730296928528	0.5893381992703219
1.449	0.3004834871540928	0.3261431991687389	0.4733026069344661	0.0821221963101611	0.3855379605354258	0.5918835146597761
1.45	0.3038187033887794	0.3252507921180849	0.4719889501211679	0.0825829128477466	0.3860588150299955	0.594413153730129
1.451	0.3071251893522829	0.3243363025433834	0.4706507772868933	0.0830382874815342	0.3866345800819819	0.5969241925766727
1.452	0.3104004905123727	0.3234004712145268	0.4692888846839637	0.0834879785728219	0.3872642072770667	0.5994137810247815
